<svg xmlns="http://www.w3.org/2000/svg" viewBox="0 0 41.19 33.43"><title>Asset 1</title><g id="Layer_2" data-name="Layer 2"><g id="Layer_1-2" data-name="Layer 1"><path d="M10.52,32.68a12.27,12.27,0,0,0,1.21.35c8,1.31,14.93-.54,20.39-6.75,4.85-5.51,7.38-12.14,9-19.19C41.38,6,40.87,5.78,40,5.76c-3.4-.08-6.81-.31-10.21-.21a28.45,28.45,0,0,0-10.35,2.2,1.83,1.83,0,0,0-1.25,1.74c-.32,3-.79,6-1.19,9a6.76,6.76,0,0,0,.06.83c4.07-3.1,8.18-5.72,12.87-7.16-3.55,3.07-7.19,6-10.6,9.22A37.29,37.29,0,0,0,10.52,32.68ZM9.3,12l.35.09-.39,1.38C8,17.91,6.85,22.42,7,27.13a21,21,0,0,0,.53,3.07c8-4,11.93-22.58,6.55-30.2a3.42,3.42,0,0,0-.61.22A33.46,33.46,0,0,0,4.05,7.88c-5.15,6.35-5.4,14-.7,20.69.27.38.59.72,1.17,1.41C4.87,23.31,5.49,17.16,9.3,12Z"/></g></g></svg>