<svg xmlns="http://www.w3.org/2000/svg" viewBox="0 0 36.74 36.74"><defs><style>.cls-1{fill:#010101;}</style></defs><title>Asset 6</title><g id="Layer_2" data-name="Layer 2"><g id="Layer_1-2" data-name="Layer 1"><path class="cls-1" d="M17.86,28.47c-.54.26-1-.13-1.35-.6l0-.06a10.55,10.55,0,0,1-1-1.6c-.1-.18-.18-.34-.26-.47a4.89,4.89,0,0,0,2-3.53,6.19,6.19,0,0,0-.83-3.74c-2-3.77-6.59-5.5-9.16-6.19l-.33-.09,0,.34a34.6,34.6,0,0,1,.18,4.87c0,.35,0,.69,0,1A11.9,11.9,0,0,0,7.24,20a7.32,7.32,0,0,0,.46,1.74,0,0,0,0,1,0,0A7.76,7.76,0,0,0,11,25.58a4.9,4.9,0,0,0,1.6.62,4.73,4.73,0,0,0,.73.06A3.8,3.8,0,0,0,14.81,26l.27.48a12.75,12.75,0,0,0,1,1.68l.05.05a1.91,1.91,0,0,0,1.36.85,1.25,1.25,0,0,0,.54-.13.24.24,0,0,0,.11-.31A.23.23,0,0,0,17.86,28.47Zm-1.08-6.32A4.51,4.51,0,0,1,15,25.33l-.85-1.89,1.9-4.66A5.64,5.64,0,0,1,16.78,22.15Zm-1-3.88L13.9,22.85c-.48-1.11-.8-1.91-1.06-2.57-.2-.49-.35-.87-.51-1.24s-.29-.64-.47-1L13,15.35A9.76,9.76,0,0,1,15.76,18.27ZM9.14,14.05Q8.63,13.51,8.09,13a18.71,18.71,0,0,1,4.49,2.08l-1,2.42A17.48,17.48,0,0,0,9.14,14.05Zm-1.66-1q.69.62,1.32,1.29a17.16,17.16,0,0,1,2.76,4.1l-4-.7V17.4A39.47,39.47,0,0,0,7.48,13.07Zm.11,5.37v-.21L11.8,19a1.89,1.89,0,0,0,.11.25c.16.37.31.75.5,1.23s.42,1.06.72,1.77l-5-.71A7.26,7.26,0,0,1,7.69,20,11,11,0,0,1,7.59,18.44Zm5.05,7.3a4,4,0,0,1-1.44-.56A7.2,7.2,0,0,1,8.3,22l5,.72c.11.27.24.55.37.86.29.66.59,1.32.89,2A3.49,3.49,0,0,1,12.64,25.74Z"/><path d="M17.52,29.39a2.28,2.28,0,0,1-1.65-1,11.26,11.26,0,0,1-1.12-1.79l-.11-.19a4.23,4.23,0,0,1-1.34.21,5.62,5.62,0,0,1-.79-.06,5.2,5.2,0,0,1-1.73-.66,8.08,8.08,0,0,1-3.41-4l0-.09a7.46,7.46,0,0,1-.47-1.76,10,10,0,0,1-.11-1.65V17.39a33.64,33.64,0,0,0-.17-4.81l-.12-.9.88.24c2.63.7,7.34,2.48,9.39,6.37a6.54,6.54,0,0,1,.87,4,5.4,5.4,0,0,1-1.89,3.59l.09.17a11.76,11.76,0,0,0,.94,1.55c.51.62.73.66.95.56h0a.59.59,0,0,1,.8.28.61.61,0,0,1-.28.81A1.64,1.64,0,0,1,17.52,29.39ZM9,22.48a7,7,0,0,0,2.41,2.38,4,4,0,0,0,1.3.51h0a3.34,3.34,0,0,0,1.39-.05c-.24-.52-.48-1.06-.71-1.59-.11-.24-.2-.46-.29-.67Zm5.58,1c.19.44.39.88.59,1.31a4.48,4.48,0,0,0,1.26-2.65h0a4.84,4.84,0,0,0-.34-2.39ZM12.27,18c.15.31.28.61.4.87s.3.72.49,1.18l.73,1.81,1.45-3.58a9.62,9.62,0,0,0-2.21-2.37Zm-3.9,3.15,4.16.59-.47-1.17c-.19-.49-.34-.86-.5-1.22l0-.06L8,18.68a8.52,8.52,0,0,0,.1,1.24A6.89,6.89,0,0,0,8.37,21.17ZM8,17.45l2.91.51a16.45,16.45,0,0,0-2.36-3.35c-.19-.21-.39-.41-.59-.61C8,15.16,8,16.3,8,17.41Zm1.55-3.53a17.86,17.86,0,0,1,2,2.72l.58-1.41A16.08,16.08,0,0,0,9.52,13.92Z"/><path class="cls-1" d="M29.83,10.08l-.34.09c-2.57.69-7.17,2.41-9.15,6.19a6.05,6.05,0,0,0-.83,3.74,4.84,4.84,0,0,0,2,3.52c-.07.14-.16.3-.26.47a11.57,11.57,0,0,1-1,1.61l-.05.06c-.38.46-.81.86-1.35.59a.23.23,0,0,0-.2.42,1.33,1.33,0,0,0,.55.13,1.89,1.89,0,0,0,1.35-.85l.05-.05a11.7,11.7,0,0,0,1-1.68l.27-.49a3.79,3.79,0,0,0,2.25.25,4.68,4.68,0,0,0,1.59-.61A7.76,7.76,0,0,0,29,19.69s0,0,0,0a7.32,7.32,0,0,0,.46-1.74,10.44,10.44,0,0,0,.11-1.59c0-.35,0-.7,0-1a36.08,36.08,0,0,1,.18-4.86Zm-.69,5.21c0,.12,0,.24,0,.36l-4,.7A17.24,17.24,0,0,1,28,12.25,14.49,14.49,0,0,1,29.26,11,42,42,0,0,0,29.14,15.29Zm-4,.1-1-2.42a18.48,18.48,0,0,1,4.48-2.08c-.36.34-.71.68-1,1A17.16,17.16,0,0,0,25.16,15.39Zm-1.38-2.16,1.11,2.69c-.19.37-.34.71-.47,1s-.32.75-.51,1.24c-.27.66-.59,1.46-1.06,2.57L21,16.15A10.13,10.13,0,0,1,23.78,13.23ZM20,20a5.71,5.71,0,0,1,.73-3.37l1.9,4.66c-.28.63-.56,1.26-.85,1.89A4.51,4.51,0,0,1,20,20Zm5.58,3a4.29,4.29,0,0,1-1.43.56,3.57,3.57,0,0,1-2-.2c.3-.65.6-1.31.88-2,.14-.31.26-.6.37-.86l5-.72A7.2,7.2,0,0,1,25.54,23.07Zm3.51-5.21a7.42,7.42,0,0,1-.4,1.54l-5,.71c.3-.71.53-1.28.72-1.77s.35-.87.51-1.23c0-.08.07-.16.11-.25l4.2-.74v.21A11,11,0,0,1,29.05,17.86Z"/><path d="M19.23,27.27a1.63,1.63,0,0,1-.71-.16.67.67,0,0,1-.31-.35.61.61,0,0,1,0-.46.6.6,0,0,1,.81-.28c.21.1.44.06.89-.5a10.8,10.8,0,0,0,1-1.61l.1-.17a5.42,5.42,0,0,1-1.9-3.6,6.65,6.65,0,0,1,.87-4c2.05-3.9,6.77-5.67,9.4-6.38l.87-.23-.12.9a35.07,35.07,0,0,0-.17,4.8v1.06A12.66,12.66,0,0,1,29.88,18a8.55,8.55,0,0,1-.49,1.83,8.1,8.1,0,0,1-3.43,4,5.28,5.28,0,0,1-1.72.67,5.8,5.8,0,0,1-.8.06,4,4,0,0,1-1.34-.22l-.11.2a12.53,12.53,0,0,1-1.07,1.74A2.35,2.35,0,0,1,19.23,27.27Zm3.43-4.06a3.34,3.34,0,0,0,1.39.05,3.86,3.86,0,0,0,1.3-.51,6.87,6.87,0,0,0,2.41-2.38l-4.1.58-.28.67Zm-2-5.61A4.67,4.67,0,0,0,20.33,20h0a4.5,4.5,0,0,0,1.26,2.65l.59-1.31Zm.73-1.41,1.45,3.57c.29-.69.52-1.25.71-1.73s.35-.89.51-1.25.25-.56.4-.87l-.85-2.09A9.31,9.31,0,0,0,21.4,16.19Zm3.81,1,0,.06c-.16.36-.31.74-.5,1.22l-.47,1.17,4.16-.59a6.18,6.18,0,0,0,.31-1.25,10.36,10.36,0,0,0,.1-1.24Zm3.6-5.31c-.2.2-.4.4-.59.61a16.85,16.85,0,0,0-2.36,3.35l2.91-.51v-.05C28.76,14.23,28.75,13.07,28.81,11.89Zm-4.18,1.22.59,1.42a17.15,17.15,0,0,1,2-2.72A17.39,17.39,0,0,0,24.63,13.11Z"/><path class="cls-1" d="M12.6,7.11l.46-.05a.19.19,0,0,0,.18-.24l-.18-1.48,1.25,1.43a.31.31,0,0,0,.27.1l.4,0a.18.18,0,0,0,.18-.23l-.37-3a.18.18,0,0,0-.23-.18l-.46.06c-.13,0-.19.09-.18.23l.18,1.47L12.85,3.75a.3.3,0,0,0-.27-.1l-.4.05a.18.18,0,0,0-.18.23l.37,3C12.39,7.07,12.46,7.13,12.6,7.11Z"/><path class="cls-1" d="M19.72,4.73a1.81,1.81,0,1,0-3.62,0A1.76,1.76,0,0,0,16.63,6a1.81,1.81,0,0,0,2.56,0A1.76,1.76,0,0,0,19.72,4.73Zm-1.16.66A.93.93,0,0,1,17,4.73a.91.91,0,0,1,.28-.65.92.92,0,0,1,1.57.65A.92.92,0,0,1,18.56,5.39Z"/><path class="cls-1" d="M20.81,6.82l.46.06a.19.19,0,0,0,.23-.19l.18-1.48.88,1.69a.3.3,0,0,0,.24.16l.39.05a.18.18,0,0,0,.23-.18l.37-3a.18.18,0,0,0-.18-.23l-.46-.05a.18.18,0,0,0-.23.18L22.74,5.3l-.87-1.68a.31.31,0,0,0-.24-.16l-.4,0c-.14,0-.21,0-.23.18l-.37,3A.19.19,0,0,0,20.81,6.82Z"/><path class="cls-1" d="M15,30.78l-1.57-.2c-.09,0-.14,0-.16.13l0,.31a.12.12,0,0,0,.12.16l.49.06-.2,1.59c0,.1,0,.15.12.16l.32,0c.09,0,.14,0,.15-.13l.2-1.59.48.06c.1,0,.15,0,.16-.12l0-.31C15.11,30.84,15.07,30.79,15,30.78Z"/><path class="cls-1" d="M16.67,31.15a1.23,1.23,0,0,0-.87,2.1,1.23,1.23,0,0,0,1.74,0,1.23,1.23,0,0,0-.87-2.1Zm.45,1.68a.65.65,0,0,1-.45.18.63.63,0,1,1,0-1.26.65.65,0,0,1,.45.18.65.65,0,0,1,0,.9Z"/><path class="cls-1" d="M20,32.63l.68-1c.06-.09,0-.17-.09-.17h-.41a.2.2,0,0,0-.17.09l-.37.54-.37-.54a.2.2,0,0,0-.17-.09h-.41c-.11,0-.16.08-.09.17l.68,1-.69,1c-.07.1,0,.18.09.18h.41a.2.2,0,0,0,.17-.09l.38-.56.38.56a.2.2,0,0,0,.17.09h.41c.11,0,.15-.08.09-.18Z"/><rect class="cls-1" x="21.43" y="31.21" width="0.6" height="2.35" rx="0.14" transform="translate(-2.74 2.02) rotate(-5)"/><path class="cls-1" d="M24.83,32.36l-.27-.17c-.08,0-.13,0-.2,0a.62.62,0,0,1-.36.18.64.64,0,0,1-.47-.13.62.62,0,0,1-.24-.42.65.65,0,0,1,.13-.47.66.66,0,0,1,.42-.24.63.63,0,0,1,.42.1.13.13,0,0,0,.2,0l.22-.22a.13.13,0,0,0,0-.21,1.24,1.24,0,0,0-.9-.24A1.2,1.2,0,0,0,23,31a1.22,1.22,0,0,0-.26.91,1.25,1.25,0,0,0,.47.82,1.22,1.22,0,0,0,1.71-.18A.12.12,0,0,0,24.83,32.36Z"/><path class="cls-1" d="M18.37.37a18,18,0,1,0,18,18A18,18,0,0,0,18.37.37Zm0,35.47A17.47,17.47,0,1,1,35.84,18.37,17.49,17.49,0,0,1,18.37,35.84Z"/><path d="M18.37,36.74A18.37,18.37,0,1,1,36.74,18.37,18.39,18.39,0,0,1,18.37,36.74Zm0-35.46A17.09,17.09,0,1,0,35.46,18.37,17.11,17.11,0,0,0,18.37,1.28Z"/></g></g></svg>