<svg xmlns="http://www.w3.org/2000/svg" viewBox="0 0 36.44 43.3"><defs><style>.cls-1{stroke:#231f20;stroke-miterlimit:10;}.cls-2{fill:#231f20;}</style></defs><title>Asset 2</title><g id="Layer_2" data-name="Layer 2"><g id="Layer_1-2" data-name="Layer 1"><path class="cls-1" d="M2.19,11.88h.08a7.74,7.74,0,0,1,.23.86c.14.95.29,1.9.39,2.86.13,1.15.22,2.3.29,3.45,0,.94,0,1.87,0,2.81a1.15,1.15,0,0,0,.23.72c.43.56.85,1.13,1.29,1.68.59.74,1.2,1.47,1.81,2.2S8,28.18,8.72,29c.43.52.86,1,1.3,1.56.1.12.23.24.41.16a.35.35,0,0,0,.12-.57c-.21-.26-.43-.51-.65-.77-.76-.91-1.52-1.84-2.29-2.74a12.84,12.84,0,0,1-1.78-2.49A8,8,0,0,1,5.39,23c-.08-.26,0-.35.27-.26a3.29,3.29,0,0,1,.76.35C7.21,23.74,8,24.36,8.75,25s1.66,1.6,2.47,2.41c.61.61,1.2,1.24,1.79,1.87a23.74,23.74,0,0,1,2.59,3.24,6.87,6.87,0,0,1,.9,1.82,11.1,11.1,0,0,1,.36,2.86,38,38,0,0,1-.28,5.11.55.55,0,0,0,.05.31.3.3,0,0,0,.37.13c.17,0,.23-.19.25-.36l.18-1.93a26,26,0,0,0,0-4.58,6.78,6.78,0,0,0-.89-3c-.4-.64-.82-1.29-1.27-1.9a44.34,44.34,0,0,0-3.84-4.26,40.28,40.28,0,0,0-4.27-3.89,3.85,3.85,0,0,0-1.47-.74.76.76,0,0,0-1,.77l0,.21c-.24-.31-.44-.56-.62-.83a.65.65,0,0,1-.1-.36c0-.67,0-1.34-.06-2-.07-1.32-.13-2.64-.26-3.95s-.3-2.32-.49-3.48a3.87,3.87,0,0,0-.34-1,.56.56,0,0,0-.93-.17,1.72,1.72,0,0,0-.54.83,13.35,13.35,0,0,0-.54,2.66C.57,16.38.54,18,.5,19.63c0,.85,0,1.7.07,2.55a20.4,20.4,0,0,0,.49,3.65,5.17,5.17,0,0,0,1,2.25c.79.92,1.55,1.85,2.31,2.79q1.38,1.69,2.73,3.42a4.48,4.48,0,0,1,.68,1.1,10.59,10.59,0,0,1,.48,1.84A28,28,0,0,1,8.64,42a1.14,1.14,0,0,0,0,.37.3.3,0,0,0,.34.21.3.3,0,0,0,.28-.3,1.48,1.48,0,0,0,0-.21c0-.79-.05-1.57-.09-2.36a19.41,19.41,0,0,0-.43-3.39,5.47,5.47,0,0,0-1-2.3c-.79-1-1.55-2-2.34-2.93s-1.51-1.83-2.26-2.75a13.2,13.2,0,0,1-.91-1.18,5.72,5.72,0,0,1-.61-1.8,23.65,23.65,0,0,1-.45-4.9c0-1.3.06-2.61.11-3.91a19.3,19.3,0,0,1,.47-3.63A2.91,2.91,0,0,1,2.19,11.88ZM31.82,23l-.05,0a1.1,1.1,0,0,1,0-.16.75.75,0,0,0-1-.77,2.86,2.86,0,0,0-1.26.58c-1,.77-1.89,1.54-2.79,2.36-.68.61-1.31,1.28-1.95,1.93S23.55,28.2,23,28.84A24.15,24.15,0,0,0,20.4,32a7.66,7.66,0,0,0-1.18,2.46,14.52,14.52,0,0,0-.32,3.94c0,1.21.16,2.41.24,3.61a4.51,4.51,0,0,0,.08.53.3.3,0,0,0,.35.25.31.31,0,0,0,.29-.33c0-.11,0-.22,0-.32-.1-1.27-.22-2.53-.27-3.8a19.64,19.64,0,0,1,.08-2.42,6,6,0,0,1,.44-2,10.08,10.08,0,0,1,1.34-2.23c.69-.87,1.4-1.72,2.15-2.53,1-1.13,2.12-2.24,3.22-3.32.77-.74,1.59-1.43,2.4-2.13a4.27,4.27,0,0,1,1.51-.92.85.85,0,0,1,.32,0,1.23,1.23,0,0,1,0,.33,6.71,6.71,0,0,1-1.22,2.32c-.78,1-1.63,2-2.45,3-.5.6-1,1.2-1.5,1.8a.32.32,0,0,0,0,.49.33.33,0,0,0,.48-.08c.79-.94,1.58-1.87,2.37-2.82s1.7-2,2.54-3.06c.55-.68,1.08-1.38,1.62-2.08a1.27,1.27,0,0,0,.27-.83c0-1.1,0-2.2.1-3.3s.18-2.51.34-3.77c.1-.89.3-1.77.46-2.65a1.09,1.09,0,0,1,.09-.23c.05,0,.07,0,.08.05a1.1,1.1,0,0,1,.09.14,14.22,14.22,0,0,1,.45,1.54,31.2,31.2,0,0,1,.44,5.2c0,1.15,0,2.3-.07,3.44a17.29,17.29,0,0,1-.45,3.37,4.19,4.19,0,0,1-.7,1.78c-.56.72-1.14,1.41-1.71,2.12L29,33.6a5.83,5.83,0,0,0-1.39,2.85c-.13.78-.27,1.57-.33,2.35-.09,1.12-.12,2.24-.16,3.36a.37.37,0,0,0,.34.42c.19,0,.32-.17.33-.43l.09-2.29a17.92,17.92,0,0,1,.44-3.49A4.4,4.4,0,0,1,29,34.66c.71-.9,1.42-1.81,2.14-2.7.94-1.17,1.88-2.32,2.84-3.46a5.7,5.7,0,0,0,1.2-2.06,22.27,22.27,0,0,0,.71-5.57,43.61,43.61,0,0,0-.16-5,18.6,18.6,0,0,0-.43-3.07,3.43,3.43,0,0,0-.58-1.39.65.65,0,0,0-1.19.16l0,.06c-.11.44-.25.88-.33,1.33a39.57,39.57,0,0,0-.56,5.1c-.08,1.23-.1,2.45-.13,3.68a.91.91,0,0,1-.18.58Z"/><path class="cls-1" d="M17.43,23.69a15,15,0,0,1-3.54-.33,3.76,3.76,0,0,1-1.85-1,3.07,3.07,0,0,1-.8-1.68,6.69,6.69,0,0,1,.27-3,10.71,10.71,0,0,1,1.77-3.54c.2-.26.42-.51.63-.75.08-.09.09-.14,0-.21a3.22,3.22,0,0,1-1-1.19A11.49,11.49,0,0,1,12,9.64a22.77,22.77,0,0,1-.69-3.26c-.09-.7-.12-1.4-.16-2.1A8.11,8.11,0,0,1,11.32,2a2.62,2.62,0,0,1,.47-1A1,1,0,0,1,13,.58a2.65,2.65,0,0,1,1.16.93,11.25,11.25,0,0,1,1.51,2.71,21.41,21.41,0,0,1,1.14,3.59,12.52,12.52,0,0,1,.41,3c0,.25,0,.49-.06.74s0,.22.18.21h.44c.09,0,.14,0,.13-.13a10.65,10.65,0,0,1,.35-3.85A21.54,21.54,0,0,1,19.5,4a10.58,10.58,0,0,1,1.43-2.51,3.2,3.2,0,0,1,.91-.81,1.12,1.12,0,0,1,1.6.45,4.13,4.13,0,0,1,.47,1.64A9.18,9.18,0,0,1,24,3.93a18.34,18.34,0,0,1-.29,3.14,22.07,22.07,0,0,1-1,3.84,5.56,5.56,0,0,1-1,1.91,4,4,0,0,1-.6.49c-.1.08-.1.12,0,.21a9.93,9.93,0,0,1,1.72,2.53,10.6,10.6,0,0,1,.75,2.11,5.67,5.67,0,0,1,0,2.92,3,3,0,0,1-1.49,1.78,6.13,6.13,0,0,1-2.4.68C18.83,23.62,18,23.66,17.43,23.69Zm0-.53c.33,0,.95,0,1.58-.07a7.7,7.7,0,0,0,2.51-.52,2.54,2.54,0,0,0,1.63-1.94A5.55,5.55,0,0,0,23,18.37a10,10,0,0,0-1.42-3.31,6.75,6.75,0,0,0-2.36-2.3,3.55,3.55,0,0,0-3.14-.26,5.71,5.71,0,0,0-2.3,1.82A9.94,9.94,0,0,0,12.31,17a7.4,7.4,0,0,0-.58,3.51,2.47,2.47,0,0,0,1,1.8,3.94,3.94,0,0,0,1.64.67A16.38,16.38,0,0,0,17.43,23.16Zm6-19.34c0-.28,0-.78-.12-1.28A2.86,2.86,0,0,0,23,1.38a.62.62,0,0,0-1-.23,1.43,1.43,0,0,0-.38.31,11.71,11.71,0,0,0-.91,1.22,18.56,18.56,0,0,0-1.95,5.15,12.24,12.24,0,0,0-.41,2.68,8.26,8.26,0,0,0,.11,1.22.28.28,0,0,0,.18.2,5.31,5.31,0,0,1,1.73,1,.33.33,0,0,0,.24,0,1.77,1.77,0,0,0,.88-.74,7.26,7.26,0,0,0,.92-2.12c.26-.94.48-1.89.69-2.85A17.41,17.41,0,0,0,23.47,3.82Zm-6.74,7a13.35,13.35,0,0,0-.33-2.59,19.58,19.58,0,0,0-1.8-5.15,13.07,13.07,0,0,0-1-1.48,1.62,1.62,0,0,0-.77-.59.49.49,0,0,0-.6.14,2.48,2.48,0,0,0-.32.54,5.24,5.24,0,0,0-.29,1.92,22.4,22.4,0,0,0,.14,2.46,20.56,20.56,0,0,0,.68,3.3,11.72,11.72,0,0,0,.88,2.38,2.43,2.43,0,0,0,.95,1.08.23.23,0,0,0,.27,0,4.88,4.88,0,0,1,1.89-1,.22.22,0,0,0,.18-.2C16.66,11.34,16.71,11,16.73,10.87Z"/><path class="cls-2" d="M16.65,18h0A2.33,2.33,0,0,1,19,20.34v0a.74.74,0,0,1-.74.74H16.65a.74.74,0,0,1-.74-.74V18.75A.74.74,0,0,1,16.65,18Z" transform="translate(-8.71 18.06) rotate(-45)"/></g></g></svg>