<svg xmlns="http://www.w3.org/2000/svg" viewBox="0 0 32.96 40.39"><title>Asset 5</title><g id="Layer_2" data-name="Layer 2"><g id="Layer_1-2" data-name="Layer 1"><path d="M9.78,13.81a9.84,9.84,0,0,1-1.1-.27A2.31,2.31,0,0,1,7,11.62,8.89,8.89,0,0,1,7,9.15,2.49,2.49,0,0,1,9.57,7q6.62,0,13.24,0a2.62,2.62,0,0,1,2.61,2.69v1.07a2.73,2.73,0,0,1-2.85,3v1.32c0,1,0,1.95,0,2.93a1.21,1.21,0,0,0,.16.58q3.82,6.63,7.67,13.24c.63,1.1,1.29,2.19,1.91,3.3a3.47,3.47,0,0,1,.37,3.3A3.2,3.2,0,0,1,30,40.28a39,39,0,0,1-3.9.11H3.32a3.82,3.82,0,0,1-2.2-.59A2.6,2.6,0,0,1,.07,37,5.71,5.71,0,0,1,.66,35.3q2.66-5,5.35-10,1.83-3.39,3.65-6.8a.7.7,0,0,0,.12-.33C9.79,16.73,9.78,15.25,9.78,13.81Zm11.38-1.49h1.66A1.19,1.19,0,0,0,24,11.13c0-.42,0-.83,0-1.25,0-1-.43-1.48-1.48-1.48H9.72A1.23,1.23,0,0,0,8.36,9.78c0,.43,0,.86,0,1.29a1.21,1.21,0,0,0,1.26,1.25h1.54a.9.9,0,0,1,0,.16v6a.78.78,0,0,1-.09.33l-1.61,3L3.92,32.18C3.16,33.6,2.35,35,1.67,36.46S1.58,39,3.31,39H29.08a3.86,3.86,0,0,0,1-.16,1,1,0,0,0,.84-1.14,4.6,4.6,0,0,0-.4-1.61C29.47,34,28.36,32,27.26,30c-1.73-3.23-3.45-6.47-5.24-9.68a5.57,5.57,0,0,1-.86-3.52,7.12,7.12,0,0,0,0-.8Z"/><path d="M12.53,3.78a1.63,1.63,0,0,1,1.62-1.65,1.69,1.69,0,0,1,1.67,1.66,1.67,1.67,0,0,1-1.59,1.64A1.63,1.63,0,0,1,12.53,3.78Z"/><path d="M19.47,1.42A1.37,1.37,0,0,1,18,2.82a1.43,1.43,0,0,1-1.32-1.41,1.41,1.41,0,1,1,2.81,0Z"/><path d="M20.6,21c3,5.57,6,11,9,16.53H2.8c.14-.31.22-.58.35-.82q3-5.46,6-10.93c.14-.24.24-.27.52-.21,1.15.24,2.3.48,3.47.64A3.32,3.32,0,0,0,16,25c.76-.77,1.46-1.6,2.26-2.32S19.77,21.56,20.6,21Z"/><path d="M16.41,10.08a2.95,2.95,0,1,1-3,2.91A3,3,0,0,1,16.41,10.08Z"/><path d="M15.27,17.56a2.08,2.08,0,0,1,2.08,2,2.12,2.12,0,1,1-4.24.06A2.08,2.08,0,0,1,15.27,17.56Z"/></g></g></svg>